<svg id="Group_21038" data-name="Group 21038" xmlns="http://www.w3.org/2000/svg" width="23.134" height="23.134" viewBox="0 0 23.134 23.134">
  <path id="Path_12810" data-name="Path 12810" d="M4209.6,2123.7h-2.293a4.458,4.458,0,0,0,0-5.461h2.3a6.443,6.443,0,0,1,0,5.461Zm-5.837,0a2.73,2.73,0,1,1,2.73-2.73,2.73,2.73,0,0,1-2.73,2.73Zm-4.478-2.729a4.47,4.47,0,0,0,6.335,4.071v2.1a6.444,6.444,0,1,1,0-12.342v2.1a4.47,4.47,0,0,0-6.335,4.071Z" transform="translate(-4192.2 -2109.401)"/>
  <g id="Group_21015" data-name="Group 21015">
    <path id="Path_12812" data-name="Path 12812" d="M1073.973,303.012a11.567,11.567,0,1,1,11.567-11.567A11.58,11.58,0,0,1,1073.973,303.012Zm0-21.485a9.918,9.918,0,1,0,9.918,9.918A9.93,9.93,0,0,0,1073.973,281.527Z" transform="translate(-1062.406 -279.878)"/>
  </g>
</svg>
