<svg xmlns="http://www.w3.org/2000/svg" width="219.249" height="43.679" viewBox="0 0 219.249 43.679">
  <path id="Path_12802" data-name="Path 12802" d="M159.3,28.426a1.2,1.2,0,0,1-.89-.38L152.4,21.928a1.239,1.239,0,0,1-.254-1.371,1.217,1.217,0,0,1,1.118-.753h2.551a2.006,2.006,0,0,0,2.066-1.82,2,2,0,0,0-2.083-1.764h-4.846c.007,0-.024.041-.024.082V27.176a1.231,1.231,0,1,1-2.462,0V16.3a2.513,2.513,0,0,1,2.487-2.533h4.846a4.385,4.385,0,0,1,4.527,4.215,4.457,4.457,0,0,1-4.113,4.291l3.938,4.024a1.239,1.239,0,0,1,.4.95,1.2,1.2,0,0,1-.426.873,1.239,1.239,0,0,1-.819.3Zm34.358-.005a6.693,6.693,0,0,1-4.961-1.764,7.079,7.079,0,0,1-1.77-5.159V14.92a1.225,1.225,0,0,1,1.2-1.242,1.243,1.243,0,0,1,1.241,1.242V21.5c0,3.069,1.338,4.436,4.34,4.436,3.039,0,4.344-1.329,4.359-4.441V14.92a1.223,1.223,0,1,1,2.445,0V21.5c0,4.464-2.417,6.924-6.8,6.924h-.054Zm24.37,0a1.244,1.244,0,0,1-1.241-1.243V16.21c-.031-.026-.052-.017-.065,0l-2.931,4.842a2.475,2.475,0,0,1-4.286,0l-2.92-4.823a.137.137,0,0,0-.054-.053l-.023,10.995a1.231,1.231,0,1,1-2.462,0V16.21a2.483,2.483,0,0,1,4.639-1.279l2.92,4.823c.024.04.042.052.048.054-.014-.006.028-.041.043-.063l2.913-4.811a2.483,2.483,0,0,1,4.641,1.277V27.179a1.235,1.235,0,0,1-1.222,1.243Zm-36.06,0a1.233,1.233,0,0,1-1.22-1.243V14.939a1.231,1.231,0,1,1,2.46,0V27.178A1.243,1.243,0,0,1,181.967,28.421Zm-44.444,0c-4.671,0-7.81-2.963-7.81-7.372,0-4.34,3.213-7.372,7.81-7.372,4.677,0,7.814,2.962,7.814,7.372S142.2,28.421,137.523,28.421Zm0-12.238c-3.348,0-5.349,1.819-5.349,4.867s2,4.885,5.349,4.885,5.353-1.826,5.353-4.885S140.875,16.183,137.523,16.183ZM121.187,28.421c-4.673,0-7.814-2.963-7.814-7.372,0-4.34,3.213-7.372,7.814-7.372a8.138,8.138,0,0,1,5.607,1.958,1.259,1.259,0,0,1,.1,1.759,1.229,1.229,0,0,1-1.747.1,5.752,5.752,0,0,0-3.958-1.309c-3.35,0-5.349,1.819-5.349,4.867s2,4.867,5.349,4.867a5.752,5.752,0,0,0,3.958-1.309,1.209,1.209,0,0,1,.9-.317,1.225,1.225,0,0,1,.851.413,1.262,1.262,0,0,1-.1,1.758,8.051,8.051,0,0,1-5.607,1.96Zm-13.337,0a2.474,2.474,0,0,1-2.136-1.223L99.249,16.226c-.02-.035-.041-.044-.046-.044l-.026,10.995a1.232,1.232,0,1,1-2.463,0V16.21a2.484,2.484,0,0,1,4.645-1.272l6.464,10.971a.062.062,0,0,0,.028.025.042.042,0,0,0,.044-.046V14.939a1.232,1.232,0,1,1,2.463,0V25.889a2.523,2.523,0,0,1-2.509,2.533Zm-22.071,0c-4.674,0-7.814-2.963-7.814-7.372,0-4.34,3.213-7.372,7.814-7.372,4.674,0,7.813,2.962,7.813,7.372S90.451,28.421,85.778,28.421Zm0-12.238c-3.35,0-5.35,1.819-5.35,4.867s2,4.885,5.35,4.885,5.35-1.826,5.35-4.885S89.129,16.183,85.778,16.183ZM69.441,28.421c-4.674,0-7.815-2.963-7.815-7.372,0-4.34,3.214-7.372,7.815-7.372a8.143,8.143,0,0,1,5.608,1.958,1.257,1.257,0,0,1,.1,1.759,1.228,1.228,0,0,1-1.746.1,5.744,5.744,0,0,0-3.957-1.309c-3.351,0-5.35,1.819-5.35,4.867s2,4.867,5.35,4.867A5.744,5.744,0,0,0,73.4,24.607a1.209,1.209,0,0,1,.9-.317,1.224,1.224,0,0,1,.848.413,1.265,1.265,0,0,1-.094,1.758,8.064,8.064,0,0,1-5.609,1.96Zm100.332-.075h-3.656a2.514,2.514,0,0,1-2.49-2.533V16.3a2.514,2.514,0,0,1,2.49-2.533h3.519c2.647-.037,4.677.619,5.985,1.933a7.29,7.29,0,0,1,1.833,5.345,7.3,7.3,0,0,1-1.829,5.343C174.324,27.706,172.407,28.346,169.773,28.346Zm-.06-12.107h-3.6a.1.1,0,0,0-.027.064v9.51a.1.1,0,0,0,.043.067l3.517,0c2.023.014,3.4-.377,4.228-1.21a4.939,4.939,0,0,0,1.115-3.619,4.89,4.89,0,0,0-1.106-3.58c-.817-.827-2.182-1.23-4.173-1.23ZM41.624,31.089H33.847a15.106,15.106,0,0,0-.007-18.509h7.78a21.846,21.846,0,0,1,0,18.509Zm-19.785,0a9.254,9.254,0,1,1,9.254-9.254,9.254,9.254,0,0,1-9.254,9.254ZM6.661,21.84a15.153,15.153,0,0,0,21.472,13.8v7.119a21.84,21.84,0,1,1,0-41.83V8.043a15.153,15.153,0,0,0-21.472,13.8Z"/>
</svg>
