<svg id="Group_21045" data-name="Group 21045" xmlns="http://www.w3.org/2000/svg" width="23.134" height="23.134" viewBox="0 0 23.134 23.134">
  <g id="Layer_x0020_1" transform="translate(7.458 4.876)">
    <g id="_1421394342400">
      <g id="Group_20992" data-name="Group 20992">
        <path id="Path_12804" data-name="Path 12804" d="M383.59,0l-.09.3V9.154l.09.09L387.7,6.815Z" transform="translate(-379.482)" fill="#343434"/>
        <path id="Path_12805" data-name="Path 12805" d="M4.108,0,0,6.815,4.108,9.243V0Z" fill="#8c8c8c"/>
        <path id="Path_12806" data-name="Path 12806" d="M387.291,727.317l-.051.062v3.152l.051.148,4.11-5.788Z" transform="translate(-383.183 -717.296)" fill="#3c3c3b"/>
        <path id="Path_12807" data-name="Path 12807" d="M4.108,730.678v-3.362L0,724.89Z" transform="translate(0 -717.296)" fill="#8c8c8c"/>
        <path id="Path_12808" data-name="Path 12808" d="M392.07,476.625l4.107-2.428-4.107-1.867Z" transform="translate(-387.962 -467.382)" fill="#141414"/>
        <path id="Path_12809" data-name="Path 12809" d="M0,474.2l4.108,2.428V472.33Z" transform="translate(0 -467.382)" fill="#393939"/>
      </g>
    </g>
  </g>
  <g id="Group_20995" data-name="Group 20995">
    <path id="Path_12812" data-name="Path 12812" d="M1073.973,303.012a11.567,11.567,0,1,1,11.567-11.567A11.58,11.58,0,0,1,1073.973,303.012Zm0-21.485a9.918,9.918,0,1,0,9.918,9.918A9.929,9.929,0,0,0,1073.973,281.527Z" transform="translate(-1062.406 -279.878)"/>
  </g>
</svg>
