<svg xmlns="http://www.w3.org/2000/svg" width="16.557" height="26.142" viewBox="0 0 16.557 26.142">
  <g id="hourglass" transform="translate(-93.867)">
    <g id="Group_21070" data-name="Group 21070" transform="translate(93.867)">
      <g id="Group_21069" data-name="Group 21069" transform="translate(0)">
        <path id="Path_12818" data-name="Path 12818" d="M109.117,0H95.174a1.307,1.307,0,0,0,0,2.614h13.943a1.307,1.307,0,1,0,0-2.614Zm0,1.743H95.174a.436.436,0,0,1,0-.871h13.943a.436.436,0,1,1,0,.871Z" transform="translate(-93.867)"/>
      </g>
    </g>
    <g id="Group_21072" data-name="Group 21072" transform="translate(93.867 23.528)">
      <g id="Group_21071" data-name="Group 21071" transform="translate(0)">
        <path id="Path_12819" data-name="Path 12819" d="M109.117,460.8H95.174a1.307,1.307,0,1,0,0,2.614h13.943a1.307,1.307,0,1,0,0-2.614Zm0,1.743H95.174a.436.436,0,1,1,0-.871h13.943a.436.436,0,1,1,0,.871Z" transform="translate(-93.867 -460.8)"/>
      </g>
    </g>
    <g id="Group_21074" data-name="Group 21074" transform="translate(95.61 1.743)">
      <g id="Group_21073" data-name="Group 21073" transform="translate(0)">
        <path id="Path_12820" data-name="Path 12820" d="M137.64,43.845a11.636,11.636,0,0,0,3.431-8.282V34.57a.436.436,0,0,0-.436-.436h-12.2a.436.436,0,0,0-.436.436v.993a11.637,11.637,0,0,0,3.43,8.282l.438.438a1.668,1.668,0,0,1,0,2.359l-.438.438A11.636,11.636,0,0,0,128,55.362v.993a.436.436,0,0,0,.436.436h12.2a.436.436,0,0,0,.436-.436v-.993a11.636,11.636,0,0,0-3.431-8.282l-.438-.438a1.668,1.668,0,0,1,0-2.359Zm-1.054-.178a2.539,2.539,0,0,0,0,3.591l.438.438a10.771,10.771,0,0,1,3.175,7.666v.557H128.871v-.557a10.772,10.772,0,0,1,3.175-7.666l.438-.438a2.539,2.539,0,0,0,0-3.591l-.438-.438a10.771,10.771,0,0,1-3.175-7.666v-.557H140.2v.557a10.771,10.771,0,0,1-3.175,7.666Z" transform="translate(-128 -34.134)"/>
      </g>
    </g>
    <g id="Group_21076" data-name="Group 21076" transform="translate(98.66 5.839)">
      <g id="Group_21075" data-name="Group 21075" transform="translate(0)">
        <path id="Path_12821" data-name="Path 12821" d="M194.908,115.863a.62.62,0,0,0-.632-.369,6.32,6.32,0,0,1-3.673-.774,1.862,1.862,0,0,0-1.714-.252,1.717,1.717,0,0,0-1.1,1.183,1.421,1.421,0,0,0-.046.239.46.46,0,0,0,.054.254,9.685,9.685,0,0,0,1.557,2.165l.437.438a3.385,3.385,0,0,1,1,2.412.436.436,0,1,0,.871,0,3.388,3.388,0,0,1,1-2.412l.438-.438c.108-.107.248-.24.4-.384C194.627,116.865,195.1,116.35,194.908,115.863ZM192.9,117.29c-.161.152-.309.291-.421.4l-.438.438a4.28,4.28,0,0,0-.818,1.141,4.278,4.278,0,0,0-.818-1.141l-.437-.438a8.358,8.358,0,0,1-1.334-1.836.852.852,0,0,1,.545-.568.991.991,0,0,1,.912.137,6.662,6.662,0,0,0,3.746.934C193.57,116.663,193.147,117.061,192.9,117.29Z" transform="translate(-187.741 -114.362)"/>
      </g>
    </g>
    <g id="Group_21078" data-name="Group 21078" transform="translate(97.381 18.3)">
      <g id="Group_21077" data-name="Group 21077" transform="translate(0)">
        <path id="Path_12822" data-name="Path 12822" d="M172.222,362.287a3.776,3.776,0,0,0-1.331-2.679c-.088-.092-.181-.187-.275-.288a2.915,2.915,0,0,0-2.121-.92h-2.07a2.916,2.916,0,0,0-2.121.92c-.095.1-.186.2-.275.288a3.774,3.774,0,0,0-1.331,2.68.435.435,0,0,0,.434.469h8.657a.436.436,0,0,0,.434-.47Zm-8.595-.4a3.028,3.028,0,0,1,1.028-1.672c.091-.095.186-.194.284-.3a2.04,2.04,0,0,1,1.485-.644h2.07a2.042,2.042,0,0,1,1.485.644c.1.105.193.2.285.3a3.033,3.033,0,0,1,1.027,1.672Z" transform="translate(-162.695 -358.4)"/>
      </g>
    </g>
    <g id="Group_21080" data-name="Group 21080" transform="translate(101.697 13.943)">
      <g id="Group_21079" data-name="Group 21079" transform="translate(0)">
        <path id="Path_12823" data-name="Path 12823" d="M247.647,273.067a.436.436,0,0,0-.436.436v.436a.436.436,0,0,0,.871,0V273.5A.436.436,0,0,0,247.647,273.067Z" transform="translate(-247.211 -273.067)"/>
      </g>
    </g>
    <g id="Group_21082" data-name="Group 21082" transform="translate(101.697 16.121)">
      <g id="Group_21081" data-name="Group 21081" transform="translate(0)">
        <path id="Path_12824" data-name="Path 12824" d="M247.647,315.733a.436.436,0,0,0-.436.436v.436a.436.436,0,1,0,.871,0v-.436A.436.436,0,0,0,247.647,315.733Z" transform="translate(-247.211 -315.733)"/>
      </g>
    </g>
  </g>
</svg>
